<svg width="24" height="24" viewBox="0 0 24 24" fill="none" xmlns="http://www.w3.org/2000/svg">
<path d="M7 2C6.44772 2 6 2.44772 6 3V4C4.34315 4 3 5.34315 3 7V17C3 18.6569 4.34315 20 6 20H18C19.6569 20 21 18.6569 21 17V7C21 5.34315 19.6569 4 18 4V3C18 2.44772 17.5523 2 17 2C16.4477 2 16 2.44772 16 3V4H8V3C8 2.44772 7.55228 2 7 2ZM5 8H19V17C19 17.5523 18.5523 18 18 18H6C5.44772 18 5 17.5523 5 17V8ZM7.40039 10C7.17948 10 7 10.1795 7 10.4004V11.5996C7 11.8205 7.17948 12 7.40039 12H8.59961C8.82052 12 9 11.8205 9 11.5996V10.4004C9 10.1795 8.82052 10 8.59961 10H7.40039ZM11.4004 10C11.1795 10 11 10.1795 11 10.4004V11.5996C11 11.8205 11.1795 12 11.4004 12H12.5996C12.8205 12 13 11.8205 13 11.5996V10.4004C13 10.1795 12.8205 10 12.5996 10H11.4004ZM15.4004 10C15.1795 10 15 10.1795 15 10.4004V11.5996C15 11.8205 15.1795 12 15.4004 12H16.5996C16.8205 12 17 11.8205 17 11.5996V10.4004C17 10.1795 16.8205 10 16.5996 10H15.4004ZM7.40039 14C7.17948 14 7 14.1795 7 14.4004V15.5996C7 15.8205 7.17948 16 7.40039 16H8.59961C8.82052 16 9 15.8205 9 15.5996V14.4004C9 14.1795 8.82052 14 8.59961 14H7.40039ZM11.4004 14C11.1795 14 11 14.1795 11 14.4004V15.5996C11 15.8205 11.1795 16 11.4004 16H12.5996C12.8205 16 13 15.8205 13 15.5996V14.4004C13 14.1795 12.8205 14 12.5996 14H11.4004Z" fill="black"/>
</svg>
