<svg width="24" height="24" viewBox="0 0 24 24" fill="none" xmlns="http://www.w3.org/2000/svg">
<path d="M13.6947 2.13238C6.9166 1.03572 1.03631 6.91676 2.13223 13.6949C2.8297 17.7818 6.11896 21.1705 10.3053 21.8679C17.0834 22.9646 22.9637 17.0836 21.8678 10.3054C21.1703 6.21854 17.7809 2.82986 13.6947 2.13238ZM13.5945 19.7748C8.01252 20.8714 3.12873 15.9869 4.22539 10.4056C4.82344 7.31595 7.31505 4.72417 10.5049 4.12612C16.0869 3.02945 20.9707 7.914 19.874 13.4953C19.1766 16.6851 16.6842 19.1767 13.5945 19.7748ZM11.8004 7.01618C11.3018 7.01618 11.0028 7.31521 11.0028 7.71365V12.9966L15.5875 15.7873C15.986 15.9869 16.3852 15.8867 16.584 15.5877C16.7836 15.1892 16.6835 14.79 16.285 14.5912L12.4971 12.2984V7.71365C12.4971 7.31521 12.1988 7.01618 11.8004 7.01618Z" fill="black"/>
</svg>
